<svg width="512" height="512" viewBox="0 0 512 512" fill="none" xmlns="http://www.w3.org/2000/svg">
  <rect width="512" height="512" rx="116" fill="#081F3F"/>
  <path d="M256 64L400 118V226C400 319 340 397 256 448C172 397 112 319 112 226V118L256 64Z" fill="white"/>
  <path d="M256 91L374 136V226C374 300 326 366 256 412C186 366 138 300 138 226V136L256 91Z" fill="#A40120"/>
  <path d="M256 127L342 160V228C342 285 306 336 256 372C206 336 170 285 170 228V160L256 127Z" fill="white"/>
  <path d="M303 178H241C217 178 199 195 199 218C199 240 216 253 240 258L266 264C279 267 286 273 286 284C286 296 277 304 260 304H204V335H258C298 335 322 315 322 283C322 257 306 243 276 236L251 231C239 228 234 223 234 214C234 205 242 198 255 198H303V178Z" fill="#081F3F"/>
  <path d="M208 158H316V178H208V158Z" fill="#081F3F"/>
  <path d="M196 335H304V355H196V335Z" fill="#081F3F"/>
</svg>